<svg width="256" height="113" viewBox="0 0 256 113" fill="none" xmlns="http://www.w3.org/2000/svg">
<g filter="url(#filter0_d_5_14)">
<path d="M60.9547 28.8043V2.91784L32.257 53.419H31.3672L60.9547 1.57115L63.5501 0.374082V53.419H60.9547V28.8043ZM29.5875 28.8043V2.91784L0.889849 53.419H0L29.5875 1.57115L32.1829 0.374082V53.419H29.5875V28.8043Z" fill="#94514C"/>
<path d="M98.0323 1.04743V1.79559H75.1187V25.2132H98.0323V25.9613H75.1187V52.6708H102.852V53.419H72.5233V1.04743H98.0323Z" fill="#94514C"/>
<path d="M135.464 53.419V2.09486L138.06 0.897799V53.419H135.464ZM136.799 16.0107C139.716 16.0107 142.435 16.5843 144.956 17.7315C147.477 18.8787 149.776 20.4249 151.853 22.3701C153.929 24.2655 155.758 26.485 157.34 29.0288C158.971 31.5227 160.331 34.1662 161.418 36.9593C162.506 39.7026 163.346 42.4958 163.94 45.3388C164.533 48.1818 164.829 50.8752 164.829 53.419H162.234C162.234 51.1246 161.987 48.6307 161.493 45.9373C160.998 43.2439 160.257 40.5505 159.268 37.8571C158.279 35.1139 157.068 32.4703 155.634 29.9266C154.201 27.3828 152.545 25.1383 150.666 23.1931C148.787 21.2479 146.686 19.7017 144.363 18.5545C142.039 17.3574 139.518 16.7589 136.799 16.7589C134.08 16.7589 131.559 17.3574 129.236 18.5545C126.912 19.7017 124.786 21.2479 122.858 23.1931C120.98 25.1383 119.324 27.3828 117.89 29.9266C116.456 32.4205 115.245 35.0391 114.256 37.7823C113.317 40.4757 112.6 43.194 112.106 45.9373C111.612 48.6307 111.364 51.1246 111.364 53.419H108.769C108.769 50.8752 109.041 48.1818 109.585 45.3388C110.178 42.4958 111.018 39.7026 112.106 36.9593C113.243 34.1662 114.602 31.5227 116.184 29.0288C117.816 26.485 119.645 24.2655 121.672 22.3701C123.748 20.4249 126.047 18.8787 128.568 17.7315C131.139 16.5843 133.883 16.0107 136.799 16.0107ZM135.464 16.2352C134.229 15.2376 133.017 14.1403 131.831 12.9433C130.694 11.6963 129.557 10.4743 128.42 9.27724C127.283 8.08018 126.121 6.98287 124.935 5.98532C123.798 4.98777 122.586 4.21466 121.301 3.66601C120.016 3.11735 118.656 2.8929 117.223 2.99266C115.838 3.09241 114.331 3.64107 112.699 4.63862L112.625 3.74082C115.196 2.54376 117.445 2.04499 119.373 2.2445C121.35 2.44401 123.18 3.14229 124.86 4.33936C126.591 5.48654 128.296 7.00781 129.977 8.90316C131.658 10.7486 133.487 12.7437 135.464 14.8885V16.2352ZM138.06 14.8885C140.087 12.7437 141.916 10.7486 143.547 8.90316C145.228 7.00781 146.909 5.48654 148.59 4.33936C150.32 3.14229 152.149 2.44401 154.077 2.2445C156.055 2.04499 158.329 2.54376 160.899 3.74082L160.825 4.63862C159.194 3.64107 157.661 3.09241 156.228 2.99266C154.843 2.8929 153.509 3.11735 152.223 3.66601C150.938 4.21466 149.702 4.98777 148.516 5.98532C147.379 6.98287 146.242 8.08018 145.104 9.27724C143.967 10.4743 142.806 11.6963 141.619 12.9433C140.482 14.1403 139.296 15.2376 138.06 16.2352V14.8885Z" fill="#94514C"/>
<path d="M214.859 52.8204L214.497 53.419H190.111L170.831 53.4938V52.7456L206.425 52.6708V1.87041L209.021 0.523717V52.8204H214.859ZM178.247 53.1197L177.579 52.7456L206.87 12.0455L207.463 12.4943L178.247 53.1197ZM219.131 46.3136L209.88 61.8213H209.021L217.973 46.3136H219.131Z" fill="#94514C"/>
<path d="M240.332 33.3681L238.626 36.1364L221.2 1.49633L223.425 0L240.332 33.3681ZM256 1.87309L231.062 53.419H230.247L255.593 1.25206L256 1.87309Z" fill="#94514C"/>
<path d="M29.2909 60.3767L31.8863 59.1797V84.0935H61.4738V60.3767L64.0692 59.1797V112H61.4738V84.7669H31.8863V112H29.2909V60.3767Z" fill="#94514C"/>
<path d="M68.0005 112L97.588 60.3767L100.183 59.1048V112H97.588V87.984H82.7572L68.8903 112H68.0005ZM83.1279 87.2358H97.588V62.1723L83.1279 87.2358Z" fill="#94514C"/>
<path d="M166.537 87.3855V61.499L137.84 112H136.95L166.537 60.1523L169.133 58.9552V112H166.537V87.3855ZM135.17 87.3855V61.499L106.473 112H105.583L135.17 60.1523L137.766 58.9552V112H135.17V87.3855Z" fill="#94514C"/>
<path d="M178.18 112V60.3767L180.776 59.1797V112H178.18ZM209.844 112V60.3767L212.439 56.4146V112H209.844ZM210.363 60.9004L180.776 112L180.108 111.626L209.844 60.3767L210.363 60.9004Z" fill="#94514C"/>
</g>
<defs>
<filter id="filter0_d_5_14" x="0" y="0" width="256" height="113" filterUnits="userSpaceOnUse" color-interpolation-filters="sRGB">
<feFlood flood-opacity="0" result="BackgroundImageFix"/>
<feColorMatrix in="SourceAlpha" type="matrix" values="0 0 0 0 0 0 0 0 0 0 0 0 0 0 0 0 0 0 127 0" result="hardAlpha"/>
<feOffset dy="1"/>
<feComposite in2="hardAlpha" operator="out"/>
<feColorMatrix type="matrix" values="0 0 0 0 0.579167 0 0 0 0 0.317233 0 0 0 0 0.296823 0 0 0 0.1 0"/>
<feBlend mode="normal" in2="BackgroundImageFix" result="effect1_dropShadow_5_14"/>
<feBlend mode="normal" in="SourceGraphic" in2="effect1_dropShadow_5_14" result="shape"/>
</filter>
</defs>
</svg>
