<svg width="40" height="40" viewBox="0 0 40 40" fill="none" xmlns="http://www.w3.org/2000/svg">
<path fill-rule="evenodd" clip-rule="evenodd" d="M20 9.86035C22.7535 9.86035 23.0995 9.87151 24.1805 9.92175C25.0217 9.93784 25.8541 10.097 26.6419 10.3924C27.3152 10.6535 27.9266 11.052 28.4373 11.5626C28.9479 12.0733 29.3464 12.6847 29.6075 13.358C29.9023 14.1441 30.0614 14.9745 30.0781 15.8138C30.1284 16.8948 30.1395 17.2408 30.1395 19.9943C30.1395 22.7478 30.1284 23.0938 30.0781 24.1748C30.0621 25.016 29.9029 25.8484 29.6075 26.6362C29.3464 27.3095 28.9479 27.9209 28.4373 28.4316C27.9266 28.9422 27.3152 29.3407 26.6419 29.6017C25.8562 29.8985 25.0257 30.0595 24.1861 30.078C23.1051 30.1283 22.7591 30.1394 20.0056 30.1394C17.2521 30.1394 16.9061 30.1283 15.8251 30.078C14.9839 30.0619 14.1515 29.9028 13.3637 29.6073C12.6904 29.3463 12.079 28.9478 11.5683 28.4371C11.0577 27.9265 10.6592 27.315 10.3982 26.6417C10.1014 25.856 9.94038 25.0256 9.92187 24.1859C9.87163 23.105 9.86047 22.759 9.86047 20.0055C9.86047 17.252 9.87163 16.9059 9.92187 15.825C9.93796 14.9838 10.0971 14.1514 10.3926 13.3636C10.6529 12.6893 11.0512 12.0767 11.5618 11.5651C12.0725 11.0535 12.6843 10.6541 13.3581 10.3924C14.1442 10.0976 14.9746 9.93847 15.814 9.92175C16.9005 9.87151 17.2465 9.86035 20 9.86035ZM24.093 11.7469C23.0251 11.6985 22.7033 11.6873 20 11.6873C17.2968 11.6873 16.9712 11.6985 15.907 11.7469C15.263 11.7535 14.6249 11.8705 14.0205 12.0929C13.5824 12.2618 13.1846 12.5206 12.8526 12.8525C12.5207 13.1845 12.2619 13.5823 12.093 14.0204C11.8704 14.6235 11.7527 15.2603 11.7451 15.9031C11.6968 16.971 11.6856 17.2929 11.6856 19.9962C11.6856 22.6994 11.6968 23.025 11.7451 24.0892C11.7519 24.7345 11.8696 25.3739 12.093 25.9794C12.2619 26.4175 12.5207 26.8153 12.8526 27.1473C13.1846 27.4792 13.5824 27.738 14.0205 27.9069C14.6236 28.1295 15.2604 28.2472 15.9033 28.2548C16.9712 28.3031 17.293 28.3143 19.9963 28.3143C22.6995 28.3143 23.0251 28.3031 24.0893 28.2548C24.7347 28.248 25.3741 28.1303 25.9795 27.9069C26.4176 27.738 26.8154 27.4792 27.1474 27.1473C27.4793 26.8153 27.7381 26.4175 27.907 25.9794C28.1296 25.3763 28.2473 24.7395 28.2549 24.0966C28.3033 23.0287 28.3144 22.7069 28.3144 20.0036C28.3144 17.3004 28.3033 16.9748 28.2549 15.9106C28.2481 15.2652 28.1304 14.6258 27.907 14.0204C27.7381 13.5823 27.4793 13.1845 27.1474 12.8525C26.8154 12.5206 26.4176 12.2618 25.9795 12.0929C25.3763 11.8709 24.7395 11.7539 24.0967 11.7469H24.093ZM20 23.3804C20.6686 23.3804 21.3222 23.1821 21.8781 22.8106C22.434 22.4392 22.8673 21.9112 23.1232 21.2935C23.379 20.6758 23.446 19.9961 23.3155 19.3404C23.1851 18.6846 22.8631 18.0823 22.3904 17.6095C21.9176 17.1368 21.3153 16.8148 20.6595 16.6844C20.0038 16.5539 19.3241 16.6209 18.7064 16.8767C18.0887 17.1326 17.5607 17.5659 17.1893 18.1218C16.8178 18.6777 16.6195 19.3313 16.6195 19.9999C16.62 20.8963 16.9763 21.7558 17.6102 22.3897C18.2441 23.0235 19.1036 23.3799 20 23.3804ZM20 14.7924C21.0303 14.7924 22.0375 15.098 22.8941 15.6704C23.7508 16.2428 24.4185 17.0564 24.8128 18.0082C25.2071 18.9601 25.3102 20.0075 25.1092 21.018C24.9082 22.0285 24.4121 22.9567 23.6835 23.6853C22.955 24.4138 22.0268 24.91 21.0163 25.111C20.0058 25.312 18.9584 25.2088 18.0065 24.8145C17.0546 24.4202 16.241 23.7525 15.6686 22.8959C15.0962 22.0392 14.7907 21.032 14.7907 20.0017C14.7907 18.6202 15.3395 17.2951 16.3165 16.3182C17.2934 15.3413 18.6184 14.7924 20 14.7924ZM26.6288 14.5878C26.6288 14.8284 26.5575 15.0637 26.4238 15.2638C26.2901 15.4639 26.1001 15.6198 25.8777 15.7119C25.6554 15.804 25.4108 15.8281 25.1747 15.7812C24.9387 15.7342 24.7219 15.6183 24.5517 15.4482C24.3816 15.278 24.2657 15.0612 24.2187 14.8252C24.1718 14.5891 24.1959 14.3445 24.288 14.1222C24.3801 13.8998 24.536 13.7098 24.7361 13.5761C24.9362 13.4424 25.1715 13.371 25.4121 13.371C25.7348 13.371 26.0443 13.4992 26.2725 13.7274C26.5007 13.9556 26.6288 14.2651 26.6288 14.5878Z" fill="url(#paint0_linear_5_120)" />
<defs>
<linearGradient id="paint0_linear_5_120" x1="20" y1="9.86035" x2="20" y2="30.1394" gradientUnits="userSpaceOnUse">
<stop stop-color="#94514C" stop-opacity="0.46" />
<stop offset="1" stop-color="#94514C" />
</linearGradient>
</defs>
</svg>
