<svg width="236" height="32" viewBox="0 0 236 32" fill="none" xmlns="http://www.w3.org/2000/svg">
<path d="M30.9833 15.5313V2.61923L16.3963 27.8089H15.944L30.9833 1.9475L32.3026 1.35041V27.8089H30.9833V15.5313ZM15.0394 15.5313V2.61923L0.452311 27.8089H0L15.0394 1.9475L16.3586 1.35041V27.8089H15.0394V15.5313Z" fill="#94514C"/>
<path d="M49.8299 1.68627V2.05945H38.1829V13.74H49.8299V14.1132H38.1829V27.4358H52.28V27.8089H36.8637V1.68627H49.8299Z" fill="#94514C"/>
<path d="M68.8568 27.8089V2.20872L70.176 1.61164V27.8089H68.8568ZM69.5352 9.14989C71.0178 9.14989 72.3999 9.436 73.6814 10.0082C74.963 10.5804 76.1314 11.3517 77.1868 12.3219C78.2422 13.2673 79.172 14.3744 79.9761 15.6432C80.8053 16.8872 81.4964 18.2057 82.0492 19.599C82.602 20.9673 83.0292 22.3605 83.3307 23.7786C83.6323 25.1967 83.783 26.5401 83.783 27.8089H82.4638C82.4638 26.6645 82.3382 25.4206 82.0869 24.0771C81.8356 22.7337 81.4587 21.3902 80.9561 20.0468C80.4535 18.6784 79.8379 17.3599 79.1092 16.0911C78.3804 14.8222 77.5386 13.7027 76.5838 12.7324C75.6289 11.7622 74.5609 10.9909 73.3799 10.4187C72.1988 9.82162 70.9173 9.52307 69.5352 9.52307C68.1532 9.52307 66.8716 9.82162 65.6906 10.4187C64.5096 10.9909 63.429 11.7622 62.449 12.7324C61.4941 13.7027 60.6523 14.8222 59.9236 16.0911C59.1949 17.335 58.5792 18.6411 58.0767 20.0095C57.5992 21.3529 57.2349 22.7088 56.9836 24.0771C56.7323 25.4206 56.6067 26.6645 56.6067 27.8089H55.2874C55.2874 26.5401 55.4256 25.1967 55.702 23.7786C56.0036 22.3605 56.4308 20.9673 56.9836 19.599C57.5615 18.2057 58.2526 16.8872 59.0567 15.6432C59.8859 14.3744 60.8157 13.2673 61.8459 12.3219C62.9013 11.3517 64.0698 10.5804 65.3514 10.0082C66.658 9.436 68.0527 9.14989 69.5352 9.14989ZM68.8568 9.26185C68.2286 8.76427 67.6129 8.21694 67.0098 7.61985C66.4319 6.99788 65.8539 6.38835 65.276 5.79126C64.698 5.19417 64.1075 4.64684 63.5044 4.14927C62.9265 3.65169 62.3108 3.26607 61.6575 2.99241C61.0041 2.71874 60.3131 2.60678 59.5844 2.65654C58.8808 2.7063 58.1144 2.97997 57.2851 3.47754L57.2474 3.02972C58.5541 2.43263 59.6975 2.18385 60.6775 2.28336C61.6826 2.38288 62.6124 2.73118 63.4667 3.32827C64.3462 3.90048 65.2132 4.65928 66.0675 5.60467C66.9219 6.52519 67.8516 7.52033 68.8568 8.59012V9.26185ZM70.176 8.59012C71.2063 7.52033 72.136 6.52519 72.9653 5.60467C73.8196 4.65928 74.674 3.90048 75.5284 3.32827C76.4079 2.73118 77.3376 2.38288 78.3176 2.28336C79.3228 2.18385 80.4787 2.43263 81.7853 3.02972L81.7477 3.47754C80.9184 2.97997 80.1394 2.7063 79.4107 2.65654C78.7071 2.60678 78.0286 2.71874 77.3753 2.99241C76.722 3.26607 76.0938 3.65169 75.4907 4.14927C74.9127 4.64684 74.3348 5.19417 73.7568 5.79126C73.1789 6.38835 72.5883 6.99788 71.9853 7.61985C71.4073 8.21694 70.8042 8.76427 70.176 9.26185V8.59012Z" fill="#94514C"/>
<path d="M109.213 27.5104L109.029 27.8089H96.6339L86.8338 27.8463V27.4731L104.926 27.4358V2.09677L106.245 1.42505V27.5104H109.213ZM90.6031 27.6597L90.2638 27.4731L105.152 7.17203L105.454 7.39594L90.6031 27.6597ZM111.385 24.2648L106.682 32H106.245L110.796 24.2648H111.385Z" fill="#94514C"/>
<path d="M122.161 17.8077L121.294 19.1885L112.436 1.91018L113.567 1.16382L122.161 17.8077ZM130.125 2.09811L117.449 27.8089H117.035L129.918 1.78834L130.125 2.09811Z" fill="#94514C"/>
<path d="M142.905 1.97631L144.225 1.37922V13.8062H159.264V1.97631L160.583 1.37922V27.7258H159.264V14.142H144.225V27.7258H142.905V1.97631Z" fill="#94514C"/>
<path d="M162.582 27.7258L177.621 1.97631L178.94 1.3419V27.7258H177.621V15.7467H170.082L163.034 27.7258H162.582ZM170.271 15.3735H177.621V2.87195L170.271 15.3735Z" fill="#94514C"/>
<path d="M212.668 15.4481V2.53609L198.081 27.7258H197.629L212.668 1.86435L213.987 1.26726V27.7258H212.668V15.4481ZM196.724 15.4481V2.53609L182.137 27.7258H181.685L196.724 1.86435L198.043 1.26726V27.7258H196.724V15.4481Z" fill="#94514C"/>
<path d="M218.586 27.7258V1.97631L219.905 1.37922V27.7258H218.586ZM234.681 27.7258V1.97631L236 0V27.7258H234.681ZM234.945 2.23754L219.905 27.7258L219.566 27.5392L234.681 1.97631L234.945 2.23754Z" fill="#94514C"/>
</svg>
