<svg width="48" height="48" viewBox="0 0 48 48" fill="none" xmlns="http://www.w3.org/2000/svg">
<path d="M12.259 35.9441L13.9446 29.7911C12.6405 27.5268 12.1199 24.8955 12.4634 22.3052C12.8069 19.7149 13.9953 17.3102 15.8444 15.464C17.6935 13.6178 20.1 12.4332 22.6909 12.0938C25.2817 11.7544 27.9122 12.2791 30.1745 13.5867C32.4368 14.8943 34.2045 16.9117 35.2036 19.3261C36.2028 21.7405 36.3775 24.4171 35.7007 26.941C35.0239 29.4648 33.5335 31.6949 31.4604 33.2855C29.3873 34.8761 26.8474 35.7384 24.2344 35.7387C22.2523 35.7375 20.3021 35.2402 18.5615 34.292L12.259 35.9441ZM18.845 32.1487L19.2067 32.372C20.7276 33.2726 22.4624 33.7484 24.23 33.7495C26.4188 33.7499 28.5457 33.0229 30.2763 31.6828C32.007 30.3426 33.2431 28.4654 33.7906 26.3461C34.338 24.2268 34.1656 21.9857 33.3004 19.9751C32.4353 17.9645 30.9265 16.2984 29.0113 15.2387C27.096 14.1791 24.8829 13.786 22.7199 14.1212C20.5569 14.4564 18.5666 15.501 17.062 17.0906C15.5573 18.6803 14.6236 20.7249 14.4077 22.9031C14.1918 25.0813 14.7058 27.2694 15.869 29.1236L16.0923 29.4964L15.0943 33.1377L18.845 32.1487Z" fill="url(#paint0_linear_5_111)" />
<path fill-rule="evenodd" clip-rule="evenodd" d="M30.2155 26.6878C30.1418 26.5628 29.9431 26.4891 29.6461 26.3418C29.3492 26.1944 27.8914 25.4755 27.619 25.3751C27.3466 25.2746 27.1502 25.2277 26.9492 25.5246C26.7483 25.8216 26.1835 26.4891 26.0115 26.6878C25.8396 26.8865 25.6633 26.9111 25.3686 26.7615C24.4984 26.412 23.6954 25.9142 22.9954 25.2902C22.3467 24.6902 21.7907 23.9973 21.3455 23.234C21.1714 22.9371 21.3254 22.7875 21.475 22.629C21.6246 22.4705 21.7719 22.2807 21.9215 22.1088C22.0443 21.9591 22.1443 21.7921 22.2184 21.6132C22.2575 21.5312 22.2757 21.4408 22.2714 21.35C22.2671 21.2593 22.2405 21.171 22.1939 21.093C22.1202 20.9457 21.5241 19.4856 21.2785 18.8917C21.0329 18.2978 20.7941 18.3916 20.6088 18.3804C20.4235 18.3693 20.2382 18.3804 20.0417 18.3804C19.8891 18.383 19.7387 18.4175 19.6003 18.4817C19.4619 18.5459 19.3384 18.6384 19.238 18.7533C18.905 19.069 18.6409 19.4501 18.4623 19.8727C18.2836 20.2953 18.1943 20.7503 18.1998 21.2091C18.1998 22.6692 19.2625 24.0802 19.4121 24.2789C19.5617 24.4776 21.504 27.4737 24.48 28.7574C25.0326 28.9958 25.5974 29.2045 26.1723 29.3825C26.7776 29.5663 27.4173 29.6068 28.0409 29.5008C28.6102 29.416 29.7957 28.7819 30.0502 28.0898C30.3047 27.3978 30.2891 26.8106 30.2155 26.6878Z" fill="url(#paint1_linear_5_111)" />
<defs>
<linearGradient id="paint0_linear_5_111" x1="24.1824" y1="11.9932" x2="24.1824" y2="35.9441" gradientUnits="userSpaceOnUse">
<stop stop-color="#94514C" stop-opacity="0.46" />
<stop offset="1" stop-color="#94514C" />
</linearGradient>
<linearGradient id="paint1_linear_5_111" x1="24.2311" y1="18.3755" x2="24.2311" y2="29.5585" gradientUnits="userSpaceOnUse">
<stop stop-color="#94514C" stop-opacity="0.46" />
<stop offset="1" stop-color="#94514C" />
</linearGradient>
</defs>
</svg>
